<svg width="48" height="48" viewBox="0 0 48 48" fill="none" xmlns="http://www.w3.org/2000/svg">
<path d="M26.818 3.18198C28.5754 1.42462 31.4246 1.42462 33.182 3.18198L44.818 14.818C46.5754 16.5754 46.5754 19.4246 44.818 21.182L33.182 32.818C31.4246 34.5754 28.5754 34.5754 26.818 32.818L15.182 21.182C13.4246 19.4246 13.4246 16.5754 15.182 14.818L26.818 3.18198Z" fill="url(#paint0_linear_2_1312)"/>
<path d="M7.06411 21.9757C5.33308 20.499 2.66675 21.7291 2.66675 24.0045V39.9907C2.66675 42.2657 5.33245 43.496 7.06361 42.0199L16.3761 34.0795C17.6557 32.9884 17.656 31.0115 16.3766 29.9201L7.06411 21.9757Z" fill="#90ECF4"/>
<path d="M19.0641 21.9757C17.3331 20.499 14.6667 21.7291 14.6667 24.0045V39.9907C14.6667 42.2657 17.3324 43.496 19.0636 42.0199L28.3761 34.0795C29.6557 32.9884 29.656 31.0115 28.3766 29.9201L19.0641 21.9757Z" fill="#444BD3"/>
<defs>
<linearGradient id="paint0_linear_2_1312" x1="30" y1="0" x2="30" y2="36" gradientUnits="userSpaceOnUse">
<stop stop-color="#DEDEDE"/>
<stop offset="1" stop-color="#DEDEDE" stop-opacity="0"/>
</linearGradient>
</defs>
</svg>
