<svg width="25" height="24" viewBox="0 0 25 24" fill="none" xmlns="http://www.w3.org/2000/svg">
<path d="M24.5 12.0007C24.4996 9.7075 23.8422 7.46244 22.6056 5.53128C21.3689 3.60013 19.6048 2.06374 17.5221 1.10402C15.4394 0.144306 13.1254 -0.198561 10.8538 0.116016C8.58235 0.430592 6.44854 1.38944 4.70505 2.87904C2.96156 4.36864 1.68139 6.32662 1.0161 8.52117C0.350815 10.7157 0.328264 13.055 0.951122 15.2619C1.57398 17.4689 2.81616 19.4512 4.53061 20.9741C6.24506 22.4971 8.35999 23.4969 10.625 23.8552V15.4694H7.5785V12.0007H10.625V9.35693C10.625 6.34943 12.4167 4.68818 15.1572 4.68818C16.0573 4.70066 16.9551 4.77887 17.8438 4.92218V7.87568H16.3302C16.0723 7.84143 15.81 7.86565 15.5628 7.94656C15.3155 8.02746 15.0896 8.16297 14.9018 8.34305C14.714 8.52313 14.5691 8.74315 14.478 8.98682C14.3868 9.23049 14.3516 9.49156 14.375 9.75068V12.0007H17.7035L17.171 15.4694H14.375V23.8552C17.1978 23.4086 19.7686 21.9693 21.6248 19.7961C23.4809 17.6229 24.5005 14.8586 24.5 12.0007Z" fill="#121127" fill-opacity="0.56"/>
</svg>
