<svg width="53" height="42" viewBox="0 0 53 42" fill="none" xmlns="http://www.w3.org/2000/svg">
<path d="M31.818 3.18198C33.5754 1.42462 36.4246 1.42462 38.182 3.18198L49.818 14.818C51.5754 16.5754 51.5754 19.4246 49.818 21.182L38.182 32.818C36.4246 34.5754 33.5754 34.5754 31.818 32.818L20.182 21.182C18.4246 19.4246 18.4246 16.5754 20.182 14.818L31.818 3.18198Z" fill="url(#paint0_linear_2_1307)"/>
<path d="M5.97583 34.936C4.49911 36.667 5.72923 39.3334 8.00457 39.3334L23.9908 39.3334C26.2659 39.3334 27.4961 36.6677 26.02 34.9365L18.0796 25.624C16.9885 24.3444 15.0116 24.3441 13.9202 25.6235L5.97583 34.936Z" fill="#90ECF4"/>
<path d="M5.97583 22.936C4.49911 24.667 5.72923 27.3334 8.00457 27.3334L23.9908 27.3334C26.2659 27.3334 27.4961 24.6677 26.02 22.9365L18.0796 13.624C16.9885 12.3444 15.0116 12.3442 13.9202 13.6235L5.97583 22.936Z" fill="#444BD3"/>
<defs>
<linearGradient id="paint0_linear_2_1307" x1="35" y1="0" x2="35" y2="36" gradientUnits="userSpaceOnUse">
<stop stop-color="#DEDEDE"/>
<stop offset="1" stop-color="#DEDEDE" stop-opacity="0"/>
</linearGradient>
</defs>
</svg>
