<svg width="25" height="24" viewBox="0 0 25 24" fill="none" xmlns="http://www.w3.org/2000/svg">
<path d="M12.5 2.775C15.5 2.775 15.86 2.78625 17.0458 2.84025C17.7593 2.84867 18.4662 2.97984 19.1353 3.228C19.6237 3.40832 20.0656 3.69588 20.4283 4.0695C20.8019 4.43218 21.0894 4.87402 21.2698 5.3625C21.5179 6.0316 21.6491 6.73841 21.6575 7.452C21.7115 8.64 21.725 9 21.725 12C21.725 15 21.7138 15.36 21.6598 16.5458C21.6513 17.2593 21.5202 17.9662 21.272 18.6353C21.0847 19.1202 20.7981 19.5606 20.4305 19.9282C20.0629 20.2958 19.6225 20.5825 19.1375 20.7698C18.4684 21.0179 17.7616 21.1491 17.048 21.1575C15.8623 21.2115 15.506 21.2228 12.5023 21.2228C9.4985 21.2228 9.14225 21.2115 7.9565 21.1575C7.24291 21.1491 6.5361 21.0179 5.867 20.7698C5.37852 20.5894 4.93668 20.3019 4.574 19.9282C4.20038 19.5656 3.91282 19.1237 3.7325 18.6353C3.48434 17.9662 3.35317 17.2593 3.34475 16.5458C3.2885 15.36 3.275 15.0038 3.275 12C3.275 8.99625 3.28625 8.64 3.34025 7.45425C3.34867 6.74066 3.47984 6.03385 3.728 5.36475C3.90898 4.87606 4.19731 4.4342 4.57175 4.07175C4.93443 3.69813 5.37627 3.41057 5.86475 3.23025C6.53385 2.98209 7.24066 2.85092 7.95425 2.8425C9.14 2.7885 9.5 2.775 12.5 2.775ZM12.5 0.75C9.4445 0.75 9.06125 0.76275 7.862 0.8175C6.92842 0.83728 6.0049 1.01478 5.1305 1.3425C4.38032 1.62483 3.70059 2.06707 3.1385 2.6385C2.56626 3.20037 2.12324 3.88012 1.84025 4.6305C1.51253 5.5049 1.33503 6.42842 1.31525 7.362C1.26275 8.56125 1.25 8.9445 1.25 12C1.25 15.0555 1.26275 15.4388 1.3175 16.638C1.33728 17.5716 1.51478 18.4951 1.8425 19.3695C2.12549 20.1199 2.56851 20.7996 3.14075 21.3615C3.70262 21.9337 4.38237 22.3768 5.13275 22.6597C6.00715 22.9875 6.93067 23.165 7.86425 23.1848C9.06425 23.2395 9.44675 23.2523 12.5023 23.2523C15.5578 23.2523 15.941 23.2395 17.1403 23.1848C18.0738 23.165 18.9974 22.9875 19.8718 22.6597C20.6188 22.3702 21.2972 21.928 21.8638 21.3615C22.4303 20.795 22.8724 20.1165 23.162 19.3695C23.4897 18.4951 23.6672 17.5716 23.687 16.638C23.7418 15.438 23.7545 15.0555 23.7545 12C23.7545 8.9445 23.7418 8.56125 23.687 7.362C23.6672 6.42842 23.4897 5.5049 23.162 4.6305C22.879 3.88012 22.436 3.20037 21.8638 2.6385C21.3019 2.06626 20.6221 1.62324 19.8718 1.34025C18.9974 1.01253 18.0738 0.83503 17.1403 0.81525C15.9388 0.76275 15.5555 0.75 12.5 0.75Z" fill="#121127" fill-opacity="0.56"/>
<path d="M12.4996 6.2251C11.3574 6.2251 10.2409 6.5638 9.29119 7.19836C8.3415 7.83293 7.6013 8.73486 7.16421 9.7901C6.72711 10.8453 6.61275 12.0065 6.83558 13.1267C7.05841 14.247 7.60842 15.276 8.41607 16.0836C9.22372 16.8913 10.2527 17.4413 11.373 17.6641C12.4932 17.887 13.6544 17.7726 14.7096 17.3355C15.7649 16.8984 16.6668 16.1582 17.3013 15.2085C17.9359 14.2588 18.2746 13.1423 18.2746 12.0001C18.2746 10.4685 17.6662 8.99958 16.5832 7.91656C15.5001 6.83353 14.0312 6.2251 12.4996 6.2251V6.2251ZM12.4996 15.7501C11.7579 15.7501 11.0329 15.5302 10.4162 15.1181C9.79954 14.7061 9.31889 14.1204 9.03506 13.4352C8.75123 12.7499 8.67697 11.9959 8.82167 11.2685C8.96636 10.5411 9.32351 9.87289 9.84796 9.34845C10.3724 8.824 11.0406 8.46685 11.768 8.32215C12.4955 8.17746 13.2495 8.25172 13.9347 8.53555C14.6199 8.81938 15.2056 9.30003 15.6176 9.91671C16.0297 10.5334 16.2496 11.2584 16.2496 12.0001C16.2496 12.9947 15.8545 13.9485 15.1513 14.6517C14.448 15.355 13.4942 15.7501 12.4996 15.7501Z" fill="#121127" fill-opacity="0.56"/>
<path d="M18.5043 7.34478C19.2499 7.34478 19.8543 6.74036 19.8543 5.99478C19.8543 5.24919 19.2499 4.64478 18.5043 4.64478C17.7587 4.64478 17.1543 5.24919 17.1543 5.99478C17.1543 6.74036 17.7587 7.34478 18.5043 7.34478Z" fill="#121127" fill-opacity="0.56"/>
</svg>
