<svg width="175" height="24" viewBox="0 0 175 24" fill="none" xmlns="http://www.w3.org/2000/svg">
<path d="M19.3314 0.243161V17.3131H15.1733V7.07599L11.3556 17.3131H8.00002L4.15806 7.05167V17.3131H0V0.243161H4.91187L9.70215 12.0608L14.4438 0.243161H19.3314Z" fill="#121127"/>
<path d="M21.4947 10.5046C21.4947 9.11044 21.7541 7.88652 22.2728 6.83283C22.8078 5.77913 23.5292 4.96859 24.437 4.40122C25.3448 3.83384 26.358 3.55015 27.4765 3.55015C28.4329 3.55015 29.2678 3.74468 29.9811 4.13374C30.7106 4.5228 31.2698 5.03343 31.6589 5.66565V3.74468H35.817V17.3131H31.6589V15.3921C31.2536 16.0243 30.6862 16.535 29.9568 16.924C29.2435 17.3131 28.4086 17.5076 27.4522 17.5076C26.3499 17.5076 25.3448 17.2239 24.437 16.6565C23.5292 16.0729 22.8078 15.2543 22.2728 14.2006C21.7541 13.1307 21.4947 11.8987 21.4947 10.5046ZM31.6589 10.5289C31.6589 9.49139 31.3671 8.67274 30.7835 8.07295C30.2161 7.47315 29.5191 7.17325 28.6923 7.17325C27.8656 7.17325 27.1604 7.47315 26.5768 8.07295C26.0094 8.65653 25.7257 9.46707 25.7257 10.5046C25.7257 11.542 26.0094 12.3688 26.5768 12.9848C27.1604 13.5846 27.8656 13.8845 28.6923 13.8845C29.5191 13.8845 30.2161 13.5846 30.7835 12.9848C31.3671 12.385 31.6589 11.5664 31.6589 10.5289Z" fill="#121127"/>
<path d="M47.0926 3.59878C48.6813 3.59878 49.9457 4.11753 50.8859 5.15502C51.8424 6.17629 52.3206 7.58663 52.3206 9.38602V17.3131H48.1868V9.94529C48.1868 9.03749 47.9518 8.33232 47.4817 7.82979C47.0116 7.32725 46.3793 7.07599 45.585 7.07599C44.7907 7.07599 44.1585 7.32725 43.6884 7.82979C43.2182 8.33232 42.9832 9.03749 42.9832 9.94529V17.3131H38.8251V3.74468H42.9832V5.54407C43.4047 4.94427 43.972 4.47416 44.6853 4.13374C45.3986 3.7771 46.201 3.59878 47.0926 3.59878Z" fill="#121127"/>
<path d="M54.3833 10.5046C54.3833 9.11044 54.6427 7.88652 55.1614 6.83283C55.6964 5.77913 56.4177 4.96859 57.3255 4.40122C58.2333 3.83384 59.2465 3.55015 60.3651 3.55015C61.3215 3.55015 62.1564 3.74468 62.8696 4.13374C63.5991 4.5228 64.1584 5.03343 64.5474 5.66565V3.74468H68.7055V17.3131H64.5474V15.3921C64.1422 16.0243 63.5748 16.535 62.8453 16.924C62.132 17.3131 61.2972 17.5076 60.3407 17.5076C59.2384 17.5076 58.2333 17.2239 57.3255 16.6565C56.4177 16.0729 55.6964 15.2543 55.1614 14.2006C54.6427 13.1307 54.3833 11.8987 54.3833 10.5046ZM64.5474 10.5289C64.5474 9.49139 64.2557 8.67274 63.6721 8.07295C63.1047 7.47315 62.4076 7.17325 61.5809 7.17325C60.7541 7.17325 60.049 7.47315 59.4654 8.07295C58.898 8.65653 58.6143 9.46707 58.6143 10.5046C58.6143 11.542 58.898 12.3688 59.4654 12.9848C60.049 13.5846 60.7541 13.8845 61.5809 13.8845C62.4076 13.8845 63.1047 13.5846 63.6721 12.9848C64.2557 12.385 64.5474 11.5664 64.5474 10.5289Z" fill="#121127"/>
<path d="M76.8687 3.55015C77.8251 3.55015 78.66 3.74468 79.3733 4.13374C80.1028 4.5228 80.662 5.03343 81.0511 5.66565V3.74468H85.2092V17.2888C85.2092 18.537 84.9579 19.6636 84.4554 20.6687C83.969 21.69 83.2152 22.5005 82.194 23.1003C81.1889 23.7001 79.9326 24 78.425 24C76.4148 24 74.7856 23.5218 73.5374 22.5653C72.2892 21.6251 71.5759 20.3445 71.3976 18.7234H75.507C75.6367 19.2421 75.9447 19.6474 76.431 19.9392C76.9173 20.2472 77.5171 20.4012 78.2304 20.4012C79.0896 20.4012 79.7704 20.1499 80.273 19.6474C80.7917 19.1611 81.0511 18.3749 81.0511 17.2888V15.3678C80.6458 16 80.0866 16.5187 79.3733 16.924C78.66 17.3131 77.8251 17.5076 76.8687 17.5076C75.7502 17.5076 74.737 17.2239 73.8292 16.6565C72.9214 16.0729 72.2 15.2543 71.6651 14.2006C71.1463 13.1307 70.8869 11.8987 70.8869 10.5046C70.8869 9.11044 71.1463 7.88652 71.6651 6.83283C72.2 5.77913 72.9214 4.96859 73.8292 4.40122C74.737 3.83384 75.7502 3.55015 76.8687 3.55015ZM81.0511 10.5289C81.0511 9.49139 80.7593 8.67274 80.1757 8.07295C79.6083 7.47315 78.9113 7.17325 78.0845 7.17325C77.2578 7.17325 76.5526 7.47315 75.969 8.07295C75.4016 8.65653 75.1179 9.46707 75.1179 10.5046C75.1179 11.542 75.4016 12.3688 75.969 12.9848C76.5526 13.5846 77.2578 13.8845 78.0845 13.8845C78.9113 13.8845 79.6083 13.5846 80.1757 12.9848C80.7593 12.385 81.0511 11.5664 81.0511 10.5289Z" fill="#121127"/>
<path d="M101.008 10.31C101.008 10.6991 100.983 11.1044 100.935 11.5258H91.5243C91.5892 12.3688 91.8567 13.0172 92.3268 13.4711C92.8131 13.9088 93.4048 14.1277 94.1018 14.1277C95.1393 14.1277 95.8607 13.69 96.266 12.8146H100.692C100.465 13.7062 100.051 14.5086 99.4514 15.2219C98.8678 15.9352 98.1302 16.4944 97.2386 16.8997C96.347 17.305 95.3501 17.5076 94.2477 17.5076C92.9185 17.5076 91.7351 17.2239 90.6976 16.6565C89.6601 16.0892 88.8496 15.2786 88.266 14.2249C87.6824 13.1712 87.3906 11.9392 87.3906 10.5289C87.3906 9.11854 87.6743 7.88652 88.2416 6.83283C88.8252 5.77913 89.6358 4.96859 90.6733 4.40122C91.7108 3.83384 92.9022 3.55015 94.2477 3.55015C95.5608 3.55015 96.728 3.82573 97.7493 4.3769C98.7705 4.92806 99.5649 5.71428 100.132 6.73556C100.716 7.75684 101.008 8.94833 101.008 10.31ZM96.7523 9.21581C96.7523 8.50253 96.5091 7.93516 96.0228 7.51368C95.5365 7.0922 94.9286 6.88146 94.1991 6.88146C93.502 6.88146 92.9104 7.08409 92.424 7.48936C91.9539 7.89463 91.6621 8.47011 91.5486 9.21581H96.7523Z" fill="#121127"/>
<path d="M107.359 6.00608C107.846 5.26038 108.454 4.6768 109.183 4.25532C109.912 3.81763 110.723 3.59878 111.615 3.59878V8H110.472C109.434 8 108.656 8.22695 108.137 8.68085C107.619 9.11854 107.359 9.89666 107.359 11.0152V17.3131H103.201V3.74468H107.359V6.00608Z" fill="#121127"/>
<path d="M119.122 17.5076C117.938 17.5076 116.885 17.305 115.961 16.8997C115.037 16.4944 114.307 15.9433 113.772 15.2462C113.237 14.5329 112.937 13.7386 112.873 12.8632H116.982C117.031 13.3333 117.25 13.7143 117.639 14.0061C118.028 14.2979 118.506 14.4438 119.073 14.4438C119.592 14.4438 119.989 14.3465 120.265 14.152C120.556 13.9412 120.702 13.6738 120.702 13.3495C120.702 12.9605 120.5 12.6768 120.095 12.4985C119.689 12.304 119.033 12.0932 118.125 11.8663C117.152 11.6393 116.342 11.4043 115.693 11.1611C115.045 10.9017 114.486 10.5046 114.015 9.9696C113.545 9.41844 113.31 8.68085 113.31 7.75684C113.31 6.97872 113.521 6.27356 113.943 5.64134C114.38 4.99291 115.012 4.48227 115.839 4.10942C116.682 3.73657 117.679 3.55015 118.83 3.55015C120.532 3.55015 121.87 3.97163 122.842 4.81459C123.831 5.65755 124.398 6.77609 124.544 8.17021H120.702C120.638 7.7001 120.427 7.32725 120.07 7.05167C119.73 6.77609 119.276 6.6383 118.708 6.6383C118.222 6.6383 117.849 6.73556 117.59 6.93009C117.331 7.10841 117.201 7.35968 117.201 7.68389C117.201 8.07295 117.404 8.36474 117.809 8.55927C118.23 8.7538 118.879 8.94833 119.754 9.14286C120.759 9.40223 121.578 9.6616 122.21 9.92097C122.842 10.1641 123.393 10.5694 123.864 11.1368C124.35 11.6879 124.601 12.4336 124.617 13.3739C124.617 14.1682 124.39 14.8815 123.936 15.5137C123.499 16.1297 122.858 16.616 122.015 16.9726C121.189 17.3293 120.224 17.5076 119.122 17.5076Z" fill="#121127"/>
<path d="M140.17 5.7386C140.17 6.72746 139.943 7.63526 139.489 8.462C139.036 9.27254 138.339 9.92908 137.398 10.4316C136.458 10.9341 135.291 11.1854 133.897 11.1854H131.319V17.3131H127.161V0.243161H133.897C135.258 0.243161 136.409 0.478217 137.35 0.948328C138.29 1.41844 138.995 2.06687 139.465 2.89362C139.935 3.72036 140.17 4.66869 140.17 5.7386ZM133.581 7.87842C134.375 7.87842 134.967 7.69199 135.356 7.31915C135.745 6.9463 135.939 6.41945 135.939 5.7386C135.939 5.05775 135.745 4.5309 135.356 4.15805C134.967 3.78521 134.375 3.59878 133.581 3.59878H131.319V7.87842H133.581Z" fill="#121127"/>
<path d="M151.04 17.3131L147.49 10.8693H146.493V17.3131H142.335V0.243161H149.314C150.659 0.243161 151.802 0.478217 152.742 0.948328C153.699 1.41844 154.412 2.06687 154.882 2.89362C155.352 3.70415 155.587 4.61195 155.587 5.61702C155.587 6.75177 155.263 7.76494 154.615 8.65653C153.983 9.54812 153.042 10.1803 151.794 10.5532L155.733 17.3131H151.04ZM146.493 7.92705H149.071C149.833 7.92705 150.4 7.74063 150.773 7.36778C151.162 6.99493 151.356 6.46808 151.356 5.78723C151.356 5.1388 151.162 4.62817 150.773 4.25532C150.4 3.88247 149.833 3.69605 149.071 3.69605H146.493V7.92705Z" fill="#121127"/>
<path d="M166.271 17.4833C164.666 17.4833 163.19 17.1104 161.845 16.3647C160.516 15.619 159.454 14.5816 158.66 13.2523C157.881 11.9068 157.492 10.3992 157.492 8.72948C157.492 7.05978 157.881 5.56028 158.66 4.231C159.454 2.90172 160.516 1.86424 161.845 1.11854C163.19 0.372847 164.666 0 166.271 0C167.875 0 169.342 0.372847 170.672 1.11854C172.017 1.86424 173.071 2.90172 173.833 4.231C174.611 5.56028 175 7.05978 175 8.72948C175 10.3992 174.611 11.9068 173.833 13.2523C173.055 14.5816 172.001 15.619 170.672 16.3647C169.342 17.1104 167.875 17.4833 166.271 17.4833ZM166.271 13.69C167.632 13.69 168.718 13.2361 169.529 12.3283C170.356 11.4205 170.769 10.2209 170.769 8.72948C170.769 7.22188 170.356 6.02229 169.529 5.1307C168.718 4.2229 167.632 3.769 166.271 3.769C164.893 3.769 163.79 4.21479 162.964 5.10638C162.153 5.99797 161.748 7.20567 161.748 8.72948C161.748 10.2371 162.153 11.4448 162.964 12.3526C163.79 13.2442 164.893 13.69 166.271 13.69Z" fill="#121127"/>
</svg>
