<svg width="25" height="20" viewBox="0 0 25 20" fill="none" xmlns="http://www.w3.org/2000/svg">
<path d="M24.5 2.575C23.6 2.95 22.7001 3.25 21.65 3.325C22.7001 2.725 23.4501 1.75 23.8251 0.625C22.85 1.225 21.8 1.6 20.675 1.825C19.775 0.85 18.5 0.25 17.15 0.25C14.45 0.25 12.2 2.425 12.2 5.2C12.2 5.575 12.275 5.95 12.35 6.325C8.22505 6.1 4.62505 4.15 2.15005 1.15C1.70005 1.9 1.47505 2.725 1.47505 3.625C1.47505 5.35 2.37505 6.85 3.65005 7.75C2.82505 7.75 2.07505 7.525 1.40005 7.15V7.225C1.40005 9.625 3.12505 11.575 5.37505 12.025C4.92505 12.1 4.55005 12.175 4.10005 12.175C3.80005 12.175 3.50005 12.175 3.20005 12.1C3.80005 14.05 5.67505 15.475 7.77505 15.55C6.12505 16.9 3.95005 17.65 1.62505 17.65C1.25005 17.65 0.800049 17.65 0.425049 17.575C2.67505 18.925 5.30005 19.75 8.07505 19.75C17.15 19.75 22.1 12.25 22.1 5.725C22.1 5.5 22.1 5.275 22.1 5.125C23 4.375 23.825 3.55 24.5 2.575Z" fill="#121127" fill-opacity="0.56"/>
</svg>
