<svg width="48" height="48" viewBox="0 0 48 48" fill="none" xmlns="http://www.w3.org/2000/svg">
<path d="M26.818 3.18198C28.5754 1.42462 31.4246 1.42462 33.182 3.18198L44.818 14.818C46.5754 16.5754 46.5754 19.4246 44.818 21.182L33.182 32.818C31.4246 34.5754 28.5754 34.5754 26.818 32.818L15.182 21.182C13.4246 19.4246 13.4246 16.5754 15.182 14.818L26.818 3.18198Z" fill="url(#paint0_linear_2_1317)"/>
<path d="M29.3334 24.0096C29.3334 22.0088 27.2118 20.7206 25.4366 21.6436L18.9482 25.0172C18.6594 25.1674 18.3256 25.2067 18.0098 25.1277L14.1765 24.1694C13.5095 24.0026 12.8038 24.1 12.2067 24.4411L4.01038 29.1248C3.17951 29.5996 2.66675 30.4831 2.66675 31.4401V39.9997C2.66675 41.4724 3.86066 42.6663 5.33342 42.6663H26.6667C28.1395 42.6663 29.3334 41.4724 29.3334 39.9997V24.0096Z" fill="#90ECF4"/>
<path d="M12.1672 33.7707L3.53192 37.0089C3.01151 37.2041 2.66675 37.7016 2.66675 38.2574V40C2.66675 41.4728 3.86066 42.6667 5.33341 42.6667H26.6667C28.1395 42.6667 29.3334 41.4728 29.3334 40V32.0001C29.3334 31.0691 28.4036 30.4248 27.5319 30.7516L19.833 34.2294C19.0735 34.5142 18.2453 34.5614 17.4584 34.3646L14.5418 33.6355C13.7548 33.4387 12.9267 33.4859 12.1672 33.7707Z" fill="#444BD3"/>
<defs>
<linearGradient id="paint0_linear_2_1317" x1="30" y1="0" x2="30" y2="36" gradientUnits="userSpaceOnUse">
<stop stop-color="#DEDEDE"/>
<stop offset="1" stop-color="#DEDEDE" stop-opacity="0"/>
</linearGradient>
</defs>
</svg>
